<?xml version="1.0" encoding="utf-8"?>
<svg xml:space="preserve" viewBox="0 0 100 100" y="0" x="0" xmlns="http://www.w3.org/2000/svg" id="圖層_1" version="1.1" style="height: 100%; width: 100%; background: rgb(255, 255, 255); shape-rendering: auto;" width="242px" height="242px"><g class="ldl-scale" style="transform-origin: 50% 50%; transform: rotate(0deg) scale(0.68, 0.68);"><g class="ldl-ani"><g class="ldl-layer"><g class="ldl-ani"><g><g class="ldl-layer"><g class="ldl-ani" style="transform-origin: 50px 50px; transform: scale(0.91); animation: 5.55556s linear -5.55556s infinite normal forwards running breath-0c967cf9-02b3-4a98-9856-9f7484e2bd4c;"><path fill="#f47e60" d="M68.627 71.773l-52.155 13.2V20.454L67.329 7.582a2.645 2.645 0 0 1 3.294 2.564v59.062a2.644 2.644 0 0 1-1.996 2.565z" style="fill: rgb(244, 126, 96);"></path></g></g><g class="ldl-layer"><g class="ldl-ani" style="transform-origin: 50px 50px; transform: scale(0.91); animation: 5.55556s linear -5.55556s infinite normal forwards running breath-0c967cf9-02b3-4a98-9856-9f7484e2bd4c;"><path fill="#e0e0e0" d="M68.26 10.512l12.904 7.527-51.788 13.168c-6.767.099-11.069-2.41-12.904-7.527L68.26 10.512z" style="fill: rgb(224, 224, 224);"></path></g></g><g class="ldl-layer"><g class="ldl-ani" style="transform-origin: 50px 50px; transform: scale(0.91); animation: 5.55556s linear -5.55556s infinite normal forwards running breath-0c967cf9-02b3-4a98-9856-9f7484e2bd4c;"><path fill="#e15b64" d="M81.531 79.3L29.376 92.5V27.981l50.857-12.872a2.645 2.645 0 0 1 3.294 2.564v59.062a2.646 2.646 0 0 1-1.996 2.565z" style="fill: rgb(225, 91, 100);"></path></g></g><g class="ldl-layer"><g class="ldl-ani" style="transform-origin: 50px 50px; transform: scale(0.91); animation: 5.55556s linear -5.55556s infinite normal forwards running breath-0c967cf9-02b3-4a98-9856-9f7484e2bd4c;"><path fill="#f8b26a" d="M16.473 20.454v64.519c1.86 6.274 7.015 7.467 12.904 7.527V27.981c-6.94.007-11.241-2.503-12.904-7.527z" style="fill: rgb(248, 178, 106);"></path></g></g></g></g></g><g class="ldl-layer"><g class="ldl-ani" style="transform-origin: 50px 50px; transform: scale(0.91); animation: 5.55556s linear -5.55556s infinite normal forwards running breath-0c967cf9-02b3-4a98-9856-9f7484e2bd4c;"><path fill="#fff" d="M67.139 55.57c-.049-.057-.113-.094-.168-.143V40.764l-17.27 5.176V59.9a6.304 6.304 0 0 0-1.832 1.157c-1.795 1.619-2.452 3.871-1.468 5.031.984 1.16 3.237.788 5.031-.831 1.795-1.619 2.452-3.871 1.468-5.031-.063-.074-.145-.124-.218-.186v-9.058l11.306-3.415v7.655a6.277 6.277 0 0 0-1.882 1.178c-1.795 1.619-2.452 3.871-1.468 5.031.984 1.16 3.237.788 5.031-.831 1.797-1.618 2.454-3.87 1.47-5.03z" style="fill: rgb(255, 255, 255);"></path></g></g><metadata xmlns:d="https://loading.io/stock/"><d:name>music</d:name><d:tags>sound,rhythm,score,compose,album,music,books</d:tags><d:license>by</d:license><d:slug>tl0miq</d:slug></metadata></g></g><style id="breath-0c967cf9-02b3-4a98-9856-9f7484e2bd4c" data-anikit="">@keyframes breath-0c967cf9-02b3-4a98-9856-9f7484e2bd4c
{
  0% {
    animation-timing-function: cubic-bezier(0.9647,0.2413,-0.0705,0.7911);
    transform: scale(0.9099999999999999);
  }
  51% {
    animation-timing-function: cubic-bezier(0.9226,0.2631,-0.0308,0.7628);
    transform: scale(1.02994);
  }
  100% {
    transform: scale(0.9099999999999999);
  }
}</style><!-- [ldio] generated by https://loading.io/ --></svg>